<?xml version="1.0" encoding="iso-8859-1"?>
<!-- Generator: Adobe Illustrator 19.0.0, SVG Export Plug-In . SVG Version: 6.00 Build 0)  -->
<svg version="1.1" id="Capa_1" xmlns="http://www.w3.org/2000/svg" xmlns:xlink="http://www.w3.org/1999/xlink" x="0px" y="0px"
	 viewBox="0 0 511.991 511.991" style="enable-background:new 0 0 511.991 511.991;" xml:space="preserve">
<path style="fill:#BA6746;" d="M277.882,475.601l-51.998-145.084c-1.506-4.201-4.022-7.969-7.328-10.968l-47.178-42.808
	l70.127-106.222c10.595-16.049,6.175-37.649-9.875-48.244l-51.822-34.212c-16.049-10.595-37.649-6.175-48.244,9.875L47.161,225.531
	c-11.725,17.725-12.79,40.451-2.772,59.194l39.112,73.184L54.988,478.521c-3.457,14.621,5.594,29.275,20.216,32.732
	c14.612,3.455,29.274-5.589,32.732-20.216L138.818,360.4c1.528-6.46,0.64-13.255-2.496-19.106l-31.73-58.207l72.368,72.186
	l49.705,138.685c5.063,14.128,20.627,21.505,34.786,16.43C275.595,505.319,282.951,489.744,277.882,475.601z"/>
<path style="fill:#3C5A73;" d="M77.761,347.169l54.079-14.241l-27.247-49.842l52.659,52.527l51.63-24.841l-37.505-34.03
	l70.127-106.222c10.595-16.049,6.175-37.649-9.875-48.244l-51.822-34.212c-16.049-10.595-37.649-6.175-48.244,9.875L47.161,225.531
	c-11.725,17.725-12.79,40.451-2.772,59.194L77.761,347.169z"/>
<path style="fill:#FA503C;" d="M231.629,122.274l-51.822-34.212c-16.049-10.595-37.649-6.175-48.244,9.875L45.058,228.968
	c-3.767,6.657-6.108,13.9-7.033,21.295l133.352,26.478l70.127-106.222C252.104,154.462,247.674,132.868,231.629,122.274z"/>
<circle style="fill:#BA6746;" cx="251.832" cy="51.545" r="51.545"/>
<circle style="fill:#55879B;" cx="427.509" cy="183.416" r="46.923"/>
<path style="fill:#BA6746;" d="M345.941,258.18l-88.548-38.203c-2.083-0.899-4.024-2.096-5.762-3.555l-88.548-74.318
	c-9.88-8.292-11.167-23.023-2.874-32.902c8.293-9.879,23.024-11.167,32.902-2.874l85.928,72.119l85.406,36.847
	c11.843,5.109,17.301,18.852,12.192,30.695C371.509,257.87,357.746,263.275,345.941,258.18z"/>
<path style="fill:#FA735F;" d="M236.582,142.813l-43.472-36.486c-9.879-8.292-24.609-7.003-32.902,2.874
	c-8.292,9.88-7.005,24.61,2.874,32.902l45.723,38.375L236.582,142.813z"/>
<g>
</g>
<g>
</g>
<g>
</g>
<g>
</g>
<g>
</g>
<g>
</g>
<g>
</g>
<g>
</g>
<g>
</g>
<g>
</g>
<g>
</g>
<g>
</g>
<g>
</g>
<g>
</g>
<g>
</g>
</svg>
