<svg height="512" viewBox="0 0 64 64" width="512" xmlns="http://www.w3.org/2000/svg"><path d="m3 3h7v7h-7z" fill="#ffda44"/><circle cx="7" cy="7" fill="#403711" r="2"/><path d="m27 3h10v4h-10z" fill="#ffda44"/><circle cx="32" cy="6" fill="#403711" r="2"/><path d="m54 3h7v7h-7z" fill="#ffda44"/><path d="m54 34h7v7h-7z" fill="#ffda44"/><path d="m27 37h10v4h-10z" fill="#ffda44"/><path d="m3 34h7v7h-7z" fill="#ffda44"/><path d="m59 47.98v2.04a1.006 1.006 0 0 1 -.98 1l-5.02.09v-4.22l5.02.09a1.006 1.006 0 0 1 .98 1z" fill="#957856"/><path d="m11 60v.11l-5.02-.09a1.006 1.006 0 0 1 -.98-1v-2.04a1.006 1.006 0 0 1 .98-1l5.02-.09z" fill="#957856"/><path d="m15.01 46.19-.01.81v4l.01.81-7.01.13a2.94 2.94 0 1 1 -.06-5.88h.06z" fill="#957856"/><path d="m56.06 55.06a2.94 2.94 0 1 1 -.06 5.88l-7.01-.13.01-.81v-4l-.01-.81 7.01-.13z" fill="#957856"/><path d="m53 51v.11l-37.99.7-.01-.81v-4l.01-.81 37.99.7v.11z" fill="#e0e0e2"/><path d="m49 56v4l-.01.81-37.99-.7v-.11-4-.11l37.99-.7z" fill="#e0e0e2"/><g fill="#3e3d42"><path d="m37 3h17v4h-17z"/><path d="m10 3h17v4h-17z"/><path d="m3 10h4v24h-4z"/><path d="m10 37h17v4h-17z"/><path d="m37 37h17v4h-17z"/><path d="m57 10h4v24h-4z"/></g><circle cx="57" cy="37" fill="#403711" r="2"/><circle cx="57" cy="7" fill="#403711" r="2"/><circle cx="32" cy="38" fill="#403711" r="2"/><circle cx="7" cy="37" fill="#403711" r="2"/><rect fill="#009698" height="30" rx="2" width="50" x="7" y="7"/><circle cx="17" cy="29" fill="#ffda44" r="2"/><circle cx="15" cy="15" fill="#fff" r="2"/><circle cx="27" cy="22" r="2"/><circle cx="41" cy="25" fill="#d80027" r="2"/><circle cx="35" cy="14" fill="#d80027" r="2"/><circle cx="52" cy="12" fill="#d80027" r="2"/><ellipse cx="10.5" cy="48" fill="#aa9378" rx="3.5" ry="1"/><ellipse cx="53.5" cy="57" fill="#aa9378" rx="3.5" ry="1"/></svg>